<svg width="35" height="36" viewBox="0 0 35 36" fill="none" xmlns="http://www.w3.org/2000/svg">
<path d="M16.9671 26.3101H25.5228C25.3928 26.4257 25.2627 26.5269 25.1326 26.6425L18.9615 31.2672C16.9237 32.7847 13.5997 32.7847 11.5474 31.2672L5.36186 26.6425C4.00334 25.6308 2.8905 23.3907 2.8905 21.6998V10.9906C2.8905 9.22744 4.23458 7.27638 5.88214 6.65493L13.0794 3.95235C14.2645 3.50433 16.23 3.50433 17.4151 3.95235L24.5979 6.65493C25.9709 7.17521 27.1415 8.62045 27.5028 10.0946H16.9526C16.6347 10.0946 16.3456 10.1091 16.071 10.1091C13.3973 10.268 12.7036 11.2363 12.7036 14.2857V22.1333C12.7181 25.4574 13.5708 26.3101 16.9671 26.3101Z" fill="#00BDB0"/>
<path d="M21.6784 25.2261C17.6874 25.2261 14.4523 21.991 14.4523 18C14.4523 14.009 17.6874 10.7738 21.6784 10.7738C25.6694 10.7738 28.9046 14.009 28.9046 18C28.9046 21.991 25.6694 25.2261 21.6784 25.2261ZM21.6784 14.9339L18.6124 18L21.6784 21.066L24.7445 18L21.6784 14.9339Z" fill="#00BDB0"/>
</svg>
