<svg width="20" height="20" viewBox="0 0 20 20" fill="none" xmlns="http://www.w3.org/2000/svg">
<path d="M9.05604 6.01196L12.572 11.7187C12.6504 11.8465 12.6429 12.0102 12.5504 12.1298C12.1329 12.672 11.7095 13.1564 11.3537 13.4796C11.3537 13.4796 11.0686 13.758 10.8878 13.8785C10.6411 14.0731 10.3186 14.1667 10.0053 14.1667C9.65357 14.1667 9.32105 14.0641 9.0552 13.8598C9.0077 13.8134 8.79852 13.6367 8.62768 13.4698C7.5643 12.4962 5.80754 9.95458 5.27501 8.61785C5.18918 8.42328 5.01 7.9039 5 7.63443C5 7.37474 5.05667 7.124 5.18084 6.88303C5.35168 6.5867 5.6167 6.35469 5.93088 6.22443C6.14922 6.14058 6.80426 6.01114 6.82342 6.01114C7.29095 5.92729 7.94765 5.86461 8.71435 5.83367C8.85186 5.82797 8.9852 5.89717 9.05604 6.01196Z" fill="#F15950"/>
<path opacity="0.4" d="M10.9498 6.39361C10.7939 6.14206 10.9931 5.82538 11.2923 5.83759C11.994 5.86771 12.6124 5.91982 13.0724 5.98331C13.0824 5.99308 13.8983 6.12252 14.1741 6.2715C14.6866 6.5312 15 7.04081 15 7.5887V7.63428C14.9908 7.9876 14.6775 8.739 14.6583 8.739C14.5008 9.11755 14.2341 9.61171 13.9133 10.1433C13.7682 10.3826 13.4124 10.3883 13.2649 10.149L10.9498 6.39361Z" fill="#F15950"/>
</svg>
