<svg width="20" height="20" viewBox="0 0 20 20" fill="none" xmlns="http://www.w3.org/2000/svg">
<path d="M10.944 13.988L7.42795 8.28129C7.34962 8.15347 7.35712 7.98984 7.44962 7.87017C7.86714 7.32799 8.2905 6.84361 8.64635 6.52041C8.64635 6.52041 8.93136 6.24199 9.11221 6.12151C9.35888 5.92694 9.6814 5.83332 9.99475 5.83332C10.3464 5.83332 10.679 5.9359 10.9448 6.14023C10.9923 6.18664 11.2015 6.36329 11.3723 6.53018C12.4357 7.50383 14.1925 10.0454 14.725 11.3821C14.8108 11.5767 14.99 12.0961 15 12.3656C15 12.6253 14.9433 12.876 14.8192 13.117C14.6483 13.4133 14.3833 13.6453 14.0691 13.7756C13.8508 13.8594 13.1957 13.9889 13.1766 13.9889C12.7091 14.0727 12.0524 14.1354 11.2856 14.1663C11.1481 14.172 11.0148 14.1028 10.944 13.988Z" fill="#10DC78"/>
<path opacity="0.4" d="M9.05023 13.6064C9.20607 13.8579 9.00689 14.1746 8.70771 14.1624C8.00601 14.1323 7.38765 14.0802 6.92762 14.0167C6.91762 14.0069 6.10175 13.8775 5.8259 13.7285C5.31338 13.4688 5.00003 12.9592 5.00003 12.4113V12.3657C5.00919 12.0124 5.32254 11.261 5.34171 11.261C5.49922 10.8824 5.7659 10.3883 6.08675 9.8567C6.23176 9.61735 6.58761 9.61165 6.73511 9.851L9.05023 13.6064Z" fill="#10DC78"/>
</svg>
