<svg xmlns="http://www.w3.org/2000/svg" version="1.1" xmlns:xlink="http://www.w3.org/1999/xlink" xmlns:svgjs="http://svgjs.com/svgjs" width="1440" height="560" preserveAspectRatio="none" viewBox="0 0 1440 560"><g mask="url(&quot;#SvgjsMask1000&quot;)" fill="none"><rect width="1440" height="560" x="0" y="0" fill="rgba(20, 27, 41, 1)"></rect><path d="M1038.78 99.04 a140.83 140.83 0 1 0 281.66 0 a140.83 140.83 0 1 0 -281.66 0z" fill="rgba(0, 189, 176, 1)" class="triangle-float1"></path><path d="M876.0911390319425 598.2282536163516L853.9431173366489 458.3911480906363 714.1060118109336 480.53916978592986 736.2540335062272 620.3762753116451z" fill="rgba(0, 189, 176, 1)" class="triangle-float1"></path><path d="M650.596,307.617C680.616,307.736,712.813,299.83,727.435,273.612C741.793,247.866,730.307,217.261,715.058,192.032C700.471,167.898,678.787,147.191,650.596,146.481C621.307,145.743,595.311,163.504,580.255,188.637C564.732,214.549,559.429,247.007,574.801,273.009C589.95,298.634,620.828,307.499,650.596,307.617" fill="rgba(0, 189, 176, 1)" class="triangle-float2"></path><path d="M1266.0681747720105 615.6679552426376L1300.3602946110987 487.6880217039198 1172.3803610723808 453.39590186483167 1138.0882412332926 581.3758354035494z" fill="rgba(0, 189, 176, 1)" class="triangle-float3"></path><path d="M597.750157127304 394.210220285223L636.808263293558 530.4220238784887 773.0200668868238 491.36391771223464 733.9619607205697 355.15211411896894z" fill="rgba(0, 189, 176, 1)" class="triangle-float3"></path><path d="M305.46 553.53 a154.76 154.76 0 1 0 309.52 0 a154.76 154.76 0 1 0 -309.52 0z" fill="rgba(0, 189, 176, 1)" class="triangle-float3"></path></g><defs><mask id="SvgjsMask1000"><rect width="1440" height="560" fill="#ffffff"></rect></mask><style>
            @keyframes float1 {
                0%{transform: translate(0, 0)}
                50%{transform: translate(-10px, 0)}
                100%{transform: translate(0, 0)}
            }

            .triangle-float1 {
                animation: float1 5s infinite;
            }

            @keyframes float2 {
                0%{transform: translate(0, 0)}
                50%{transform: translate(-5px, -5px)}
                100%{transform: translate(0, 0)}
            }

            .triangle-float2 {
                animation: float2 4s infinite;
            }

            @keyframes float3 {
                0%{transform: translate(0, 0)}
                50%{transform: translate(0, -10px)}
                100%{transform: translate(0, 0)}
            }

            .triangle-float3 {
                animation: float3 6s infinite;
            }
        </style></defs></svg>