<svg width="22" height="23" viewBox="0 0 22 23" fill="none" xmlns="http://www.w3.org/2000/svg">
<path d="M12.4667 7.72567H8.80005V10.659H12.4667C12.8557 10.659 13.2288 10.5045 13.5038 10.2294C13.7789 9.95437 13.9334 9.58132 13.9334 9.19233C13.9334 8.80335 13.7789 8.4303 13.5038 8.15524C13.2288 7.88019 12.8557 7.72567 12.4667 7.72567Z" fill="#FFA404"/>
<path d="M12.4667 12.1257H8.80005V15.059H12.4667C12.8557 15.059 13.2288 14.9045 13.5038 14.6294C13.7789 14.3544 13.9334 13.9813 13.9334 13.5923C13.9334 13.2033 13.7789 12.8303 13.5038 12.5552C13.2288 12.2802 12.8557 12.1257 12.4667 12.1257Z" fill="#FFA404"/>
<path d="M11 0.392334C8.82441 0.392334 6.69767 1.03747 4.88873 2.24617C3.07979 3.45486 1.66989 5.17283 0.83733 7.18281C0.00476623 9.1928 -0.213071 11.4045 0.211367 13.5383C0.635804 15.6721 1.68345 17.6321 3.22183 19.1705C4.76021 20.7089 6.72022 21.7565 8.85401 22.181C10.9878 22.6054 13.1995 22.3876 15.2095 21.555C17.2195 20.7224 18.9375 19.3125 20.1462 17.5036C21.3549 15.6947 22 13.5679 22 11.3923C21.9967 8.47596 20.8367 5.67999 18.7745 3.6178C16.7123 1.55562 13.9164 0.395634 11 0.392334ZM15.4 13.5923C15.3976 14.2408 15.1804 14.8701 14.7823 15.382C14.3843 15.8939 13.8278 16.2594 13.2 16.4215V17.259C13.2 17.4535 13.1227 17.64 12.9852 17.7775C12.8477 17.9151 12.6612 17.9923 12.4667 17.9923C12.2722 17.9923 12.0857 17.9151 11.9481 17.7775C11.8106 17.64 11.7333 17.4535 11.7333 17.259V16.5257H10.2667V17.259C10.2667 17.4535 10.1894 17.64 10.0519 17.7775C9.91436 17.9151 9.72783 17.9923 9.53334 17.9923C9.33885 17.9923 9.15232 17.9151 9.01479 17.7775C8.87727 17.64 8.8 17.4535 8.8 17.259V16.5257H6.6C6.40551 16.5257 6.21899 16.4484 6.08146 16.3109C5.94393 16.1733 5.86667 15.9868 5.86667 15.7923C5.86667 15.5978 5.94393 15.4113 6.08146 15.2738C6.21899 15.1363 6.40551 15.059 6.6 15.059H7.33334V7.72567H6.6C6.40551 7.72567 6.21899 7.6484 6.08146 7.51088C5.94393 7.37335 5.86667 7.18682 5.86667 6.99233C5.86667 6.79784 5.94393 6.61131 6.08146 6.47379C6.21899 6.33626 6.40551 6.259 6.6 6.259H8.8V5.52567C8.8 5.33117 8.87727 5.14465 9.01479 5.00712C9.15232 4.8696 9.33885 4.79233 9.53334 4.79233C9.72783 4.79233 9.91436 4.8696 10.0519 5.00712C10.1894 5.14465 10.2667 5.33117 10.2667 5.52567V6.259H11.7333V5.52567C11.7333 5.33117 11.8106 5.14465 11.9481 5.00712C12.0857 4.8696 12.2722 4.79233 12.4667 4.79233C12.6612 4.79233 12.8477 4.8696 12.9852 5.00712C13.1227 5.14465 13.2 5.33117 13.2 5.52567V6.36313C13.7172 6.49319 14.1887 6.76286 14.563 7.1427C14.9373 7.52254 15.2 7.99793 15.3224 8.51696C15.4449 9.03598 15.4224 9.57867 15.2573 10.0858C15.0923 10.5928 14.791 11.0448 14.3865 11.3923C14.7033 11.665 14.9577 12.0025 15.1326 12.3821C15.3075 12.7617 15.3987 13.1744 15.4 13.5923Z" fill="#FFA404"/>
</svg>
