<svg width="12" height="12" viewBox="0 0 12 12" fill="none" xmlns="http://www.w3.org/2000/svg">
<path d="M12 12H0.666667C0.489856 12 0.320286 11.9298 0.195262 11.8047C0.0702379 11.6797 0 11.5101 0 11.3333V0H1.33333V10.6667H12V12ZM3.582 8.66667L2.66667 7.77067L5.904 4.6C6.02657 4.48088 6.19075 4.41424 6.36167 4.41424C6.53258 4.41424 6.69677 4.48088 6.81933 4.6L8.304 6.054L11.0847 3.33333L12 4.22933L8.76267 7.4C8.6401 7.51912 8.47592 7.58576 8.305 7.58576C8.13408 7.58576 7.9699 7.51912 7.84733 7.4L6.362 5.94533L3.58267 8.66667H3.582Z" fill="#11BC60"/>
</svg>
