<svg width="100" height="29" viewBox="0 0 100 29" fill="none" xmlns="http://www.w3.org/2000/svg">
<path d="M98.1604 27.8534L93.8013 16.0922C93.2367 14.5689 91.1875 14.3187 90.273 15.6613L86.6894 20.9223C85.7136 22.3548 83.5018 21.9526 83.0929 20.2683L80.3015 8.772C79.8125 6.75802 76.9598 6.72592 76.4256 8.72839L74.1767 17.1584C73.9432 18.0338 73.1503 18.6429 72.2443 18.6429H64.5958C63.8628 18.6429 63.1885 18.2419 62.8385 17.5978L59.7444 11.9041C58.9339 10.4127 56.751 10.5453 56.1271 12.124L51.6427 23.471C50.9326 25.2676 48.3403 25.1132 47.8485 23.245L42.5006 2.92835C41.9785 0.944821 39.165 0.93891 38.6345 2.92023L36.4331 11.1429L33.8764 23.2608C33.5126 24.9852 31.258 25.4303 30.2662 23.9734L24.0911 14.902C23.2946 13.732 21.5681 13.7368 20.7782 14.9113L13.942 25.0755C13.0975 26.3312 11.2185 26.2304 10.5131 24.8917L1.1604 7.14288" stroke="url(#paint0_linear_329_56)" stroke-width="2"/>
<defs>
<linearGradient id="paint0_linear_329_56" x1="105.422" y1="28.6429" x2="-2.46982" y2="27.5666" gradientUnits="userSpaceOnUse">
<stop stop-color="#BC1111" stop-opacity="0"/>
<stop offset="0.479167" stop-color="#D10404"/>
<stop offset="1" stop-color="#BC1111" stop-opacity="0"/>
</linearGradient>
</defs>
</svg>
