<svg width="25" height="24" viewBox="0 0 25 24" fill="none" xmlns="http://www.w3.org/2000/svg">
<path d="M2.06817 14.668C2.10177 14.7949 2.16016 14.9138 2.23997 15.018C2.31978 15.1222 2.41943 15.2095 2.53317 15.275L4.44317 16.379V18.578C4.44317 18.8432 4.54853 19.0976 4.73607 19.2851C4.9236 19.4726 5.17796 19.578 5.44317 19.578H7.64217L8.74617 21.488C8.8347 21.6393 8.96111 21.765 9.11295 21.8527C9.26479 21.9404 9.43684 21.987 9.61217 21.988C9.78617 21.988 9.95917 21.942 10.1132 21.853L12.0212 20.75L13.9312 21.854C14.1608 21.9864 14.4336 22.0224 14.6896 21.9539C14.9457 21.8855 15.1642 21.7183 15.2972 21.489L16.4002 19.579H18.5992C18.8644 19.579 19.1187 19.4736 19.3063 19.2861C19.4938 19.0986 19.5992 18.8442 19.5992 18.579V16.38L21.5092 15.276C21.6229 15.2103 21.7226 15.1227 21.8026 15.0184C21.8825 14.9141 21.9411 14.7951 21.975 14.6681C22.0089 14.5412 22.0174 14.4088 22.0001 14.2785C21.9828 14.1483 21.94 14.0227 21.8742 13.909L20.7712 12L21.8752 10.092C22.0079 9.86245 22.0439 9.58959 21.9755 9.33343C21.9071 9.07727 21.7397 8.85878 21.5102 8.726L19.6002 7.622V5.422C19.6002 5.15679 19.4948 4.90243 19.3073 4.7149C19.1197 4.52736 18.8654 4.422 18.6002 4.422H16.4012L15.2982 2.513C15.165 2.28392 14.9469 2.11651 14.6912 2.047C14.5643 2.01262 14.4319 2.00375 14.3016 2.02092C14.1714 2.03808 14.0458 2.08094 13.9322 2.147L12.0212 3.25L10.1122 2.146C9.88261 2.01332 9.60976 1.97723 9.3536 2.04568C9.09744 2.11412 8.87895 2.2815 8.74617 2.511L7.64217 4.421H5.44317C5.17796 4.421 4.9236 4.52636 4.73607 4.7139C4.54853 4.90143 4.44317 5.15579 4.44317 5.421V7.62L2.53317 8.724C2.30374 8.85735 2.1365 9.0762 2.06808 9.3326C1.99967 9.58901 2.03566 9.86208 2.16817 10.092L3.27217 12L2.16817 13.908C2.03616 14.1383 2.00023 14.4114 2.06817 14.668ZM12.0212 13C8.54117 13 8.02117 11.121 8.02117 10C8.02117 8.713 9.05017 7.417 11.0212 7.085V6.012H13.0212V7.121C14.7552 7.531 15.4212 8.974 15.4212 10H14.4212L13.4212 10.018C13.4072 9.638 13.2062 9 12.0212 9C10.7222 9 10.0212 9.515 10.0212 10C10.0212 10.374 10.0212 11 12.0212 11C15.5012 11 16.0212 12.879 16.0212 14C16.0212 15.287 14.9922 16.583 13.0212 16.915V18H11.0212V16.92C8.68217 16.553 8.02117 14.917 8.02117 14H10.0212C10.0322 14.143 10.1802 15 12.0212 15C13.4012 15 14.0212 14.415 14.0212 14C14.0212 13.675 14.0212 13 12.0212 13Z" fill="#00BDB0"/>
</svg>
